<svg xmlns="http://www.w3.org/2000/svg" xmlns:xlink="http://www.w3.org/1999/xlink" width="24" height="24" viewBox="0 0 24 24">
    <defs>
        <path id="hp2nbak40a" d="M10 1c.552 0 1 .448 1 1s-.448 1-1 1H5c-.552 0-1 .448-1 1v16c0 .552.448 1 1 1h5c.552 0 1 .448 1 1s-.448 1-1 1H5c-1.657 0-3-1.343-3-3V4c0-1.657 1.343-3 3-3zm6.293 6.293c.39-.39 1.024-.39 1.414 0l4 4c.029.028.055.059.08.09l.017.022c.018.024.034.049.05.074l.021.037c.011.02.022.04.031.06l.023.053.021.06.014.045.016.065.009.053c.007.048.011.097.011.148l-.004-.086.003.054L22 12v.034l-.004.051c-.001.022-.004.043-.007.064l-.01.052c-.004.022-.009.043-.015.065l-.014.046-.021.06-.023.051-.03.061-.022.037c-.016.025-.032.05-.05.074-.03.04-.061.077-.097.112l.08-.09-.007.008-.073.082-4 4c-.39.39-1.024.39-1.414 0-.39-.39-.39-1.024 0-1.414L18.585 13H9c-.513 0-.936-.386-.993-.883L8 12c0-.552.448-1 1-1h9.585l-2.292-2.293c-.36-.36-.388-.928-.083-1.32z"/>
    </defs>
    <g fill="none" fill-rule="evenodd">
        <g>
            <g>
                <g transform="translate(-32 -312) translate(16 296) translate(16 16)">
                    <mask id="p4mudxjqcb" fill="#fff">
                        <use xlink:href="#hp2nbak40a"/>
                    </mask>
                    <use fill="#000" fill-rule="nonzero" xlink:href="#hp2nbak40a"/>
                    <g fill="#000" mask="url(#p4mudxjqcb)">
                        <path d="M0 0H24V24H0z"/>
                    </g>
                </g>
            </g>
        </g>
    </g>
</svg>
